<svg width="300" height="72" viewBox="0 0 300 72" fill="none" xmlns="http://www.w3.org/2000/svg">
<path d="M85.0265 14.54H99.0065C108.086 14.54 112.116 19.93 112.116 27.24C112.116 35.45 106.646 39.49 98.3465 39.49H93.5365V51.34H85.0265V14.54ZM97.1965 31.88C100.996 31.88 103.146 30.06 103.146 27.05C103.146 24.29 101.226 22.22 97.3265 22.22H93.5465V31.89H97.1965V31.88Z" fill="#1D2A57"/>
<path d="M115.546 13.1799H123.616V51.3499H115.546V13.1799Z" fill="#1D2A57"/>
<path d="M153.996 25.99V51.35H146.296V48.61H146.196C144.576 50.74 142.196 51.83 139.156 51.83C132.166 51.83 127.206 46.54 127.206 38.69C127.206 30.84 132.236 25.51 138.776 25.51C141.466 25.46 144.026 26.62 145.766 28.67H145.866V25.99H153.996ZM140.836 44.7C143.796 44.7 146.196 42.34 146.196 38.73C146.196 35.12 143.896 32.71 140.856 32.71C137.816 32.71 135.416 35.12 135.416 38.73C135.416 42.34 137.656 44.7 140.836 44.7Z" fill="#1D2A57"/>
<path d="M183.186 25.99L169.876 61.6H161.856L166.236 49.63L156.336 25.99H164.726L169.906 39.72H170.056L174.916 25.98L183.196 26L183.186 25.99Z" fill="#1D2A57"/>
<path d="M201.156 25.5099C207.716 25.5099 212.726 30.9499 212.726 38.6899C212.726 46.4299 207.746 51.8299 200.776 51.8299C197.636 51.8299 195.206 50.7099 193.536 48.6099H193.406V51.3499H185.716V13.1799H193.836V28.6699H193.966C195.776 26.6099 198.406 25.4499 201.156 25.5099ZM199.106 44.6999C202.266 44.6999 204.516 42.2899 204.516 38.7299C204.516 35.1699 202.156 32.7099 199.076 32.7099C195.836 32.7099 193.486 35.2399 193.486 38.7299C193.486 42.2199 195.896 44.6999 199.076 44.6999H199.106Z" fill="#1D2A57"/>
<path d="M228.786 51.86C220.626 51.86 215.096 46.39 215.096 38.7C215.096 31.01 220.606 25.52 228.786 25.52C236.966 25.52 242.456 30.91 242.456 38.7C242.456 46.49 236.806 51.86 228.786 51.86ZM228.786 44.64C231.876 44.64 234.276 42.16 234.276 38.69C234.276 35.22 231.946 32.74 228.786 32.74C225.626 32.74 223.266 35.25 223.266 38.69C223.266 42.13 225.556 44.64 228.786 44.64Z" fill="#1D2A57"/>
<path d="M258.486 51.86C250.336 51.86 244.796 46.39 244.796 38.7C244.796 31.01 250.336 25.52 258.486 25.52C266.636 25.52 272.156 30.91 272.156 38.7C272.156 46.49 266.566 51.86 258.486 51.86ZM258.486 44.64C261.576 44.64 263.976 42.16 263.976 38.69C263.976 35.22 261.646 32.74 258.486 32.74C255.326 32.74 252.966 35.25 252.966 38.69C252.966 42.13 255.296 44.64 258.486 44.64Z" fill="#1D2A57"/>
<path d="M285.646 42.0599L282.956 45.0999V51.3499H274.856V13.1799H282.956V34.3899H283.046L290.386 25.9999H299.776L291.076 35.8799L299.986 51.3499H290.996L285.756 42.0599H285.626H285.646Z" fill="#1D2A57"/>
<path d="M58.94 8.6954C59.0819 8.05663 59.1351 7.4356 59.0997 6.81458C58.4254 8.07437 57.3608 9.13899 55.9768 9.84874L27.5692 24.3985C25.4222 25.4986 23.8785 27.4859 23.3462 29.8281L18.999 48.7605H40.806C44.1773 48.7605 46.9807 50.943 47.8324 54.2078C48.5422 53.0545 49.0745 51.7947 49.3761 50.4462L58.94 8.6954Z" fill="#1D2A57"/>
<path d="M40.9195 52.6675H18.1921L14.9225 66.901C14.2828 69.6909 17.197 71.9654 19.7381 70.6504L42.4477 59.0468C45.593 57.4298 44.4557 52.6675 40.9195 52.6675Z" fill="#1D2A57"/>
<path d="M15.0805 48.769H6.40021C2.29971 48.769 -0.735722 44.9526 0.187334 40.9586L8.22857 5.79369C9.00962 2.40323 12.0096 0.00683594 15.4888 0.00683594H52.7838C56.3162 0.00683594 57.4701 4.76412 54.3104 6.37947L25.8731 20.9176C22.6957 22.5329 20.4058 25.4796 19.6248 28.9588L15.0982 48.7513L15.0805 48.769Z" fill="#1D2A57"/>
</svg>
