<svg width="401" height="76" viewBox="0 0 401 76" fill="none" xmlns="http://www.w3.org/2000/svg">
<g clip-path="url(#clip0_5_51)">
<path d="M17.1 0.699951H0V74.4H11.6V46.7H17.1C28.7 46.7 34.4 40.3 34.4 28.5V18.9C34.4 7.09995 28.7 0.699951 17.1 0.699951ZM22.8 29.2999C22.8 34.5999 20.8 36.2999 17.1 36.2999H11.6V11.3H17.1C20.8 11.3 22.8 12.9999 22.8 18.2999V29.2999Z" fill="#1D2A57"/>
<path d="M38.8 74.4V0.699951H50.4V63.9H69.4V74.4H38.8Z" fill="#1D2A57"/>
<path d="M89.7 75.4C78.3 75.4 72.4 68.7001 72.4 56.9001V0.800049H84V57.7001C84 63.0001 86.3 64.9 90 64.9C93.7 64.9 96 63.0001 96 57.7001V0.800049H107V56.9001C107 68.6001 101.1 75.4 89.7 75.4Z" fill="#1D2A57"/>
<path d="M130.7 43.9V33.4H146.9V56.8C146.9 68.6 141 75.3 129.6 75.3C118.2 75.3 112.3 68.6 112.3 56.8V18.5C112.3 6.7 118.2 0 129.6 0C141 0 146.9 6.7 146.9 18.5V25.7H135.9V17.8C135.9 12.5 133.6 10.5 129.9 10.5C126.2 10.5 123.9 12.5 123.9 17.8V57.5C123.9 62.8 126.2 64.7 129.9 64.7C133.6 64.7 135.9 62.8 135.9 57.5V43.9H130.7Z" fill="#1D2A57"/>
<path d="M174.1 9.09998H161.1L152.1 65.6H160.3L161.8 55.3H172.7L174.2 65.6H183.2L174.1 9.09998ZM162.8 47.7L167.1 19.1L171.4 47.7H162.8Z" fill="#1D2A57"/>
<path d="M205 65.5H214.1V9H206.2V42.8L197.1 9H185.9V65.5H193.9V24.6L205 65.5Z" fill="#1D2A57"/>
<path d="M233.4 9.09998H219.3V65.6H233.4C242.3 65.6 246.6 60.7 246.6 51.6V23C246.6 14 242.2 9.09998 233.4 9.09998ZM237.7 52C237.7 56 236 57.5 233.2 57.5H228.2V17.1H233.2C236 17.1 237.7 18.6 237.7 22.6V52Z" fill="#1D2A57"/>
<path d="M269.8 0.699951H252.7V74.5H264.3V46.7999H269.8C281.4 46.7999 287.1 40.4 287.1 28.6V19C287.1 7.19995 281.4 0.699951 269.8 0.699951ZM275.5 29.2999C275.5 34.5999 273.5 36.2999 269.8 36.2999H264.3V11.3H269.8C273.5 11.3 275.5 12.9999 275.5 18.2999V29.2999Z" fill="#1D2A57"/>
<path d="M291.4 74.5V0.699951H303V63.9H322.1V74.5H291.4Z" fill="#1D2A57"/>
<path d="M355 0.699951H338L326.2 74.4H336.8L338.8 61H353L355 74.4H366.7L355 0.699951ZM340.3 51.0999L345.9 13.8L351.5 51.0999H340.3Z" fill="#1D2A57"/>
<path d="M386.2 50V74.5H374.6V50L359.9 0.699951H372L380.9 34.2999L389.8 0.699951H400.8L386.2 50Z" fill="#1D2A57"/>
</g>
<defs>
<clipPath id="clip0_5_51">
<rect width="400.8" height="75.4" fill="white"/>
</clipPath>
</defs>
</svg>
